<?xml version="1.0" standalone="no"?>
<!DOCTYPE svg PUBLIC "-//W3C//DTD SVG 20010904//EN"
 "http://www.w3.org/TR/2001/REC-SVG-20010904/DTD/svg10.dtd">
<svg version="1.0" xmlns="http://www.w3.org/2000/svg"
 width="50.000000pt" height="50.000000pt" viewBox="0 0 50.000000 50.000000"
 preserveAspectRatio="xMidYMid meet">

<g transform="translate(0.000000,50.000000) scale(0.100000,-0.100000)"
fill="#000000" stroke="none">
<path d="M115 418 c-3 -12 -4 -95 -3 -183 3 -134 5 -160 18 -160 22 0 28 336
6 354 -13 11 -16 9 -21 -11z"/>
<path d="M355 418 c-3 -12 -4 -95 -3 -183 3 -134 5 -160 18 -160 22 0 28 336
6 354 -13 11 -16 9 -21 -11z"/>
<path d="M55 328 c-3 -13 -5 -55 -3 -93 2 -54 6 -70 18 -70 22 0 27 157 6 174
-13 11 -16 9 -21 -11z"/>
<path d="M415 328 c-3 -13 -5 -55 -3 -93 2 -54 6 -70 18 -70 22 0 27 157 6
174 -13 11 -16 9 -21 -11z"/>
<path d="M175 318 c-3 -13 -5 -51 -3 -83 2 -45 7 -60 18 -60 22 0 27 137 6
154 -13 11 -16 9 -21 -11z"/>
<path d="M295 318 c-3 -13 -5 -51 -3 -83 2 -45 7 -60 18 -60 22 0 27 137 6
154 -13 11 -16 9 -21 -11z"/>
<path d="M234 265 c-7 -28 7 -52 25 -41 16 10 14 41 -4 56 -12 10 -15 7 -21
-15z"/>
<path d="M0 250 c0 -16 5 -30 10 -30 6 0 10 14 10 30 0 17 -4 30 -10 30 -5 0
-10 -13 -10 -30z"/>
<path d="M480 250 c0 -16 5 -30 10 -30 6 0 10 14 10 30 0 17 -4 30 -10 30 -5
0 -10 -13 -10 -30z"/>
</g>
</svg>
